<svg width="2686" height="485" viewBox="0 0 2686 485" fill="none" xmlns="http://www.w3.org/2000/svg">
<path d="M300 40C300 17.9086 317.909 0 340 0H367C389.091 0 407 17.9086 407 40V345C407 367.091 389.091 385 367 385H300V40Z" fill="white"/>
<path d="M100 385H300V445C300 467.091 282.091 485 260 485H140C117.909 485 100 467.091 100 445V385Z" fill="white"/>
<path d="M0 325C0 302.909 17.9086 285 40 285H60C82.0914 285 100 302.909 100 325V385H40C17.9086 385 0 367.091 0 345V325Z" fill="white"/>
<path d="M593.24 331.34C581.24 331.34 570.92 328.78 562.28 323.66C553.8 318.54 547.16 311.18 542.36 301.58C537.72 291.98 535.32 280.46 535.16 267.02L569.48 265.1C569.8 277.74 571.88 286.94 575.72 292.7C579.56 298.3 585.48 301.1 593.48 301.1C601.48 301.1 607.32 298.46 611 293.18C614.84 287.9 616.76 279.66 616.76 268.46V157.1H650.84V268.46C650.84 288.3 645.8 303.74 635.72 314.78C625.64 325.82 611.48 331.34 593.24 331.34ZM724.666 330.38C716.826 330.38 709.626 328.94 703.066 326.06C696.506 323.18 691.306 319.02 687.466 313.58C683.786 308.14 681.946 301.66 681.946 294.14C681.946 283.26 685.386 274.78 692.266 268.7C699.306 262.62 708.906 258.3 721.066 255.74L759.706 247.34C759.706 239.18 758.026 232.94 754.666 228.62C751.466 224.3 746.186 222.14 738.826 222.14C732.426 222.14 727.466 223.74 723.946 226.94C720.426 230.14 718.106 234.38 716.986 239.66L683.386 237.74C685.786 225.1 691.786 215.02 701.386 207.5C711.146 199.82 723.466 195.98 738.346 195.98C756.906 195.98 770.506 200.7 779.146 210.14C787.946 219.42 792.346 232.46 792.346 249.26V294.62C792.346 297.82 792.906 300.06 794.026 301.34C795.146 302.46 796.826 303.02 799.066 303.02H804.346V327.5C803.386 327.66 801.786 327.82 799.546 327.98C797.306 328.3 794.986 328.46 792.586 328.46C786.186 328.46 780.746 327.34 776.266 325.1C771.786 322.86 768.346 319.58 765.946 315.26C763.706 310.94 762.426 305.74 762.106 299.66H765.706C764.906 305.42 762.746 310.7 759.226 315.5C755.706 320.14 750.986 323.82 745.066 326.54C739.146 329.1 732.346 330.38 724.666 330.38ZM731.386 305.9C737.466 305.9 742.586 304.86 746.746 302.78C750.906 300.54 754.106 297.34 756.346 293.18C758.586 288.86 759.706 283.82 759.706 278.06V270.38L731.146 276.62C725.386 277.9 721.306 279.74 718.906 282.14C716.506 284.54 715.306 287.98 715.306 292.46C715.306 296.62 716.666 299.9 719.386 302.3C722.106 304.7 726.106 305.9 731.386 305.9ZM904.333 327.5C889.933 327.5 879.293 324.22 872.413 317.66C865.693 311.1 862.333 300.94 862.333 287.18V168.62H894.973V284.06C894.973 289.98 896.333 294.38 899.053 297.26C901.933 300.14 906.333 301.58 912.253 301.58H942.493V327.5H904.333ZM825.373 224.78V198.86H942.493V224.78H825.373ZM1022.8 327.5V198.86H1055.44V327.5H1022.8ZM975.039 327.5V301.58H1096V327.5H975.039ZM977.439 224.78V198.86H1049.44V224.78H977.439ZM1021.84 183.02V154.7H1054.96V183.02H1021.84ZM1301.49 327.5V187.82H1256.13V157.1H1380.93V187.82H1335.57V327.5H1301.49ZM1463.4 330.38C1451.4 330.38 1440.76 327.66 1431.48 322.22C1422.36 316.62 1415.16 308.78 1409.88 298.7C1404.76 288.62 1402.2 276.78 1402.2 263.18C1402.2 249.9 1404.76 238.22 1409.88 228.14C1415 218.06 1422.12 210.22 1431.24 204.62C1440.36 198.86 1450.92 195.98 1462.92 195.98C1474.76 195.98 1485.16 198.78 1494.12 204.38C1503.24 209.98 1510.36 217.9 1515.48 228.14C1520.6 238.22 1523.16 250.14 1523.16 263.9V272.06H1435.8C1436.6 281.66 1439.48 289.02 1444.44 294.14C1449.56 299.1 1456.12 301.58 1464.12 301.58C1470.04 301.58 1475.08 300.22 1479.24 297.5C1483.4 294.62 1486.28 290.78 1487.88 285.98L1520.52 288.14C1516.2 301.58 1509.16 311.98 1499.4 319.34C1489.8 326.7 1477.8 330.38 1463.4 330.38ZM1436.28 249.74H1488.36C1487.56 241.42 1484.84 235.18 1480.2 231.02C1475.56 226.86 1469.72 224.78 1462.68 224.78C1455.32 224.78 1449.32 226.94 1444.68 231.26C1440.2 235.42 1437.4 241.58 1436.28 249.74ZM1608.5 330.38C1596.34 330.38 1585.54 327.58 1576.1 321.98C1566.82 316.38 1559.54 308.54 1554.26 298.46C1549.14 288.22 1546.58 276.46 1546.58 263.18C1546.58 249.9 1549.14 238.22 1554.26 228.14C1559.54 218.06 1566.82 210.22 1576.1 204.62C1585.54 198.86 1596.34 195.98 1608.5 195.98C1618.58 195.98 1627.78 197.98 1636.1 201.98C1644.42 205.98 1651.22 211.66 1656.5 219.02C1661.94 226.38 1665.38 235.18 1666.82 245.42L1634.42 247.1C1632.82 239.9 1629.78 234.38 1625.3 230.54C1620.82 226.7 1615.3 224.78 1608.74 224.78C1599.94 224.78 1592.98 228.22 1587.86 235.1C1582.9 241.82 1580.42 251.18 1580.42 263.18C1580.42 275.18 1582.9 284.62 1587.86 291.5C1592.98 298.22 1599.94 301.58 1608.74 301.58C1615.46 301.58 1621.06 299.58 1625.54 295.58C1630.18 291.58 1633.22 285.74 1634.66 278.06L1667.06 279.74C1665.78 289.82 1662.42 298.7 1656.98 306.38C1651.54 313.9 1644.66 319.82 1636.34 324.14C1628.02 328.3 1618.74 330.38 1608.5 330.38ZM1696.97 327.5V157.1H1729.61V226.46L1726.97 224.06C1728.89 217.5 1731.69 212.22 1735.37 208.22C1739.05 204.06 1743.53 201.02 1748.81 199.1C1754.09 197.02 1759.85 195.98 1766.09 195.98C1775.05 195.98 1782.41 197.98 1788.17 201.98C1793.93 205.98 1798.25 211.66 1801.13 219.02C1804.01 226.22 1805.45 234.7 1805.45 244.46V327.5H1772.81V251.18C1772.81 241.26 1771.13 234.22 1767.77 230.06C1764.41 225.74 1759.69 223.58 1753.61 223.58C1746.73 223.58 1740.97 226.06 1736.33 231.02C1731.85 235.98 1729.61 243.42 1729.61 253.34V327.5H1696.97ZM1839.44 327.5V198.86H1869.2L1870.16 233.9L1866.8 232.46C1868.4 224.14 1871.12 217.26 1874.96 211.82C1878.96 206.38 1883.84 202.38 1889.6 199.82C1895.36 197.26 1901.76 195.98 1908.8 195.98C1918.08 195.98 1925.6 198.06 1931.36 202.22C1937.28 206.38 1941.68 212.06 1944.56 219.26C1947.44 226.46 1948.88 234.78 1948.88 244.22V327.5H1916.24V251.66C1916.24 241.9 1914.56 234.78 1911.2 230.3C1908 225.82 1903.12 223.58 1896.56 223.58C1892.08 223.58 1888 224.7 1884.32 226.94C1880.64 229.18 1877.68 232.46 1875.44 236.78C1873.2 241.1 1872.08 246.54 1872.08 253.1V327.5H1839.44ZM2038.06 330.38C2025.9 330.38 2015.26 327.66 2006.14 322.22C1997.02 316.62 1989.9 308.78 1984.78 298.7C1979.66 288.62 1977.1 276.78 1977.1 263.18C1977.1 249.42 1979.66 237.58 1984.78 227.66C1989.9 217.58 1997.02 209.82 2006.14 204.38C2015.26 198.78 2025.9 195.98 2038.06 195.98C2050.22 195.98 2060.86 198.78 2069.98 204.38C2079.1 209.82 2086.22 217.58 2091.34 227.66C2096.46 237.58 2099.02 249.42 2099.02 263.18C2099.02 276.78 2096.46 288.62 2091.34 298.7C2086.22 308.78 2079.1 316.62 2069.98 322.22C2060.86 327.66 2050.22 330.38 2038.06 330.38ZM2038.06 301.58C2046.7 301.58 2053.34 298.3 2057.98 291.74C2062.78 285.02 2065.18 275.5 2065.18 263.18C2065.18 250.7 2062.78 241.18 2057.98 234.62C2053.34 228.06 2046.7 224.78 2038.06 224.78C2029.42 224.78 2022.7 228.06 2017.9 234.62C2013.26 241.18 2010.94 250.7 2010.94 263.18C2010.94 275.5 2013.26 285.02 2017.9 291.74C2022.7 298.3 2029.42 301.58 2038.06 301.58ZM2169.01 327.5V197.9C2169.01 192.94 2167.73 189.26 2165.17 186.86C2162.61 184.3 2158.93 183.02 2154.13 183.02H2126.29V157.1H2159.89C2173.81 157.1 2184.21 160.62 2191.09 167.66C2198.13 174.54 2201.65 184.86 2201.65 198.62V327.5H2169.01ZM2121.49 327.5V301.58H2242.45V327.5H2121.49ZM2325.88 330.38C2313.72 330.38 2303.08 327.66 2293.96 322.22C2284.84 316.62 2277.72 308.78 2272.6 298.7C2267.48 288.62 2264.92 276.78 2264.92 263.18C2264.92 249.42 2267.48 237.58 2272.6 227.66C2277.72 217.58 2284.84 209.82 2293.96 204.38C2303.08 198.78 2313.72 195.98 2325.88 195.98C2338.04 195.98 2348.68 198.78 2357.8 204.38C2366.92 209.82 2374.04 217.58 2379.16 227.66C2384.28 237.58 2386.84 249.42 2386.84 263.18C2386.84 276.78 2384.28 288.62 2379.16 298.7C2374.04 308.78 2366.92 316.62 2357.8 322.22C2348.68 327.66 2338.04 330.38 2325.88 330.38ZM2325.88 301.58C2334.52 301.58 2341.16 298.3 2345.8 291.74C2350.6 285.02 2353 275.5 2353 263.18C2353 250.7 2350.6 241.18 2345.8 234.62C2341.16 228.06 2334.52 224.78 2325.88 224.78C2317.24 224.78 2310.52 228.06 2305.72 234.62C2301.08 241.18 2298.76 250.7 2298.76 263.18C2298.76 275.5 2301.08 285.02 2305.72 291.74C2310.52 298.3 2317.24 301.58 2325.88 301.58ZM2468.82 366.38C2458.42 366.38 2449.3 364.86 2441.46 361.82C2433.78 358.78 2427.46 354.46 2422.5 348.86C2417.7 343.42 2414.34 336.94 2412.42 329.42L2446.5 327.5C2447.94 331.34 2450.42 334.38 2453.94 336.62C2457.46 338.86 2462.42 339.98 2468.82 339.98C2477.94 339.98 2484.82 337.9 2489.46 333.74C2494.26 329.74 2496.66 323.82 2496.66 315.98V301.1C2493.78 307.02 2489.38 311.82 2483.46 315.5C2477.54 319.02 2470.1 320.78 2461.14 320.78C2450.9 320.78 2441.7 318.22 2433.54 313.1C2425.54 307.82 2419.22 300.62 2414.58 291.5C2410.1 282.22 2407.86 271.58 2407.86 259.58C2407.86 246.62 2410.1 235.42 2414.58 225.98C2419.06 216.38 2425.22 209.02 2433.06 203.9C2441.06 198.62 2450.18 195.98 2460.42 195.98C2469.06 195.98 2476.5 197.98 2482.74 201.98C2489.14 205.82 2493.94 211.34 2497.14 218.54L2497.62 198.86H2529.3V311.9C2529.3 323.9 2526.82 333.9 2521.86 341.9C2516.9 350.06 2509.86 356.14 2500.74 360.14C2491.78 364.3 2481.14 366.38 2468.82 366.38ZM2469.3 294.62C2477.46 294.62 2484.02 291.66 2488.98 285.74C2494.1 279.66 2496.66 270.7 2496.66 258.86C2496.82 250.86 2495.7 244.22 2493.3 238.94C2491.06 233.5 2487.86 229.42 2483.7 226.7C2479.54 223.82 2474.74 222.38 2469.3 222.38C2460.5 222.38 2453.7 225.5 2448.9 231.74C2444.1 237.98 2441.7 247.02 2441.7 258.86C2441.7 270.7 2444.1 279.66 2448.9 285.74C2453.86 291.66 2460.66 294.62 2469.3 294.62ZM2569.29 363.5V337.58H2586.81C2590.97 337.58 2594.17 336.94 2596.41 335.66C2598.81 334.54 2600.57 332.3 2601.69 328.94L2605.05 319.34H2594.97L2549.85 198.86H2583.69L2615.13 288.14L2644.17 198.86H2678.01L2628.57 338.78C2625.53 347.74 2620.81 354.06 2614.41 357.74C2608.17 361.58 2600.09 363.5 2590.17 363.5H2569.29Z" fill="white"/>
</svg>
