<svg width="2461" height="485" viewBox="0 0 2461 485" fill="none" xmlns="http://www.w3.org/2000/svg">
<path d="M300 40C300 17.9086 317.909 0 340 0H367C389.091 0 407 17.9086 407 40V345C407 367.091 389.091 385 367 385H300V40Z" fill="white"/>
<path d="M100 385H300V445C300 467.091 282.091 485 260 485H140C117.909 485 100 467.091 100 445V385Z" fill="white"/>
<path d="M0 325C0 302.909 17.9086 285 40 285H60C82.0914 285 100 302.909 100 325V385H40C17.9086 385 0 367.091 0 345V325Z" fill="white"/>
<path d="M586.34 321.94C575.59 321.94 566.345 319.647 558.605 315.06C551.008 310.473 545.06 303.88 540.76 295.28C536.603 286.68 534.453 276.36 534.31 264.32L565.055 262.6C565.342 273.923 567.205 282.165 570.645 287.325C574.085 292.342 579.388 294.85 586.555 294.85C593.722 294.85 598.953 292.485 602.25 287.755C605.69 283.025 607.41 275.643 607.41 265.61V165.85H637.94V265.61C637.94 283.383 633.425 297.215 624.395 307.105C615.365 316.995 602.68 321.94 586.34 321.94ZM704.076 321.08C697.053 321.08 690.603 319.79 684.726 317.21C678.849 314.63 674.191 310.903 670.751 306.03C667.454 301.157 665.806 295.352 665.806 288.615C665.806 278.868 668.888 271.272 675.051 265.825C681.358 260.378 689.958 256.508 700.851 254.215L735.466 246.69C735.466 239.38 733.961 233.79 730.951 229.92C728.084 226.05 723.354 224.115 716.761 224.115C711.028 224.115 706.584 225.548 703.431 228.415C700.278 231.282 698.199 235.08 697.196 239.81L667.096 238.09C669.246 226.767 674.621 217.737 683.221 211C691.964 204.12 703.001 200.68 716.331 200.68C732.958 200.68 745.141 204.908 752.881 213.365C760.764 221.678 764.706 233.36 764.706 248.41V289.045C764.706 291.912 765.208 293.918 766.211 295.065C767.214 296.068 768.719 296.57 770.726 296.57H775.456V318.5C774.596 318.643 773.163 318.787 771.156 318.93C769.149 319.217 767.071 319.36 764.921 319.36C759.188 319.36 754.314 318.357 750.301 316.35C746.288 314.343 743.206 311.405 741.056 307.535C739.049 303.665 737.903 299.007 737.616 293.56H740.841C740.124 298.72 738.189 303.45 735.036 307.75C731.883 311.907 727.654 315.203 722.351 317.64C717.048 319.933 710.956 321.08 704.076 321.08ZM710.096 299.15C715.543 299.15 720.129 298.218 723.856 296.355C727.583 294.348 730.449 291.482 732.456 287.755C734.463 283.885 735.466 279.37 735.466 274.21V267.33L709.881 272.92C704.721 274.067 701.066 275.715 698.916 277.865C696.766 280.015 695.691 283.097 695.691 287.11C695.691 290.837 696.909 293.775 699.346 295.925C701.783 298.075 705.366 299.15 710.096 299.15ZM865.027 318.5C852.127 318.5 842.595 315.562 836.432 309.685C830.412 303.808 827.402 294.707 827.402 282.38V176.17H856.642V279.585C856.642 284.888 857.86 288.83 860.297 291.41C862.877 293.99 866.819 295.28 872.122 295.28H899.212V318.5H865.027ZM794.292 226.48V203.26H899.212V226.48H794.292ZM971.153 318.5V203.26H1000.39V318.5H971.153ZM928.368 318.5V295.28H1036.73V318.5H928.368ZM930.518 226.48V203.26H995.018V226.48H930.518ZM970.293 189.07V163.7H999.963V189.07H970.293ZM1220.82 318.5V193.37H1180.18V165.85H1291.98V193.37H1251.35V318.5H1220.82ZM1365.86 321.08C1355.11 321.08 1345.57 318.643 1337.26 313.77C1329.09 308.753 1322.64 301.73 1317.91 292.7C1313.32 283.67 1311.03 273.063 1311.03 260.88C1311.03 248.983 1313.32 238.52 1317.91 229.49C1322.5 220.46 1328.88 213.437 1337.05 208.42C1345.22 203.26 1354.68 200.68 1365.43 200.68C1376.03 200.68 1385.35 203.188 1393.38 208.205C1401.55 213.222 1407.92 220.317 1412.51 229.49C1417.1 238.52 1419.39 249.198 1419.39 261.525V268.835H1341.13C1341.85 277.435 1344.43 284.028 1348.87 288.615C1353.46 293.058 1359.33 295.28 1366.5 295.28C1371.8 295.28 1376.32 294.062 1380.05 291.625C1383.77 289.045 1386.35 285.605 1387.79 281.305L1417.03 283.24C1413.16 295.28 1406.85 304.597 1398.11 311.19C1389.51 317.783 1378.76 321.08 1365.86 321.08ZM1341.56 248.84H1388.22C1387.5 241.387 1385.06 235.797 1380.91 232.07C1376.75 228.343 1371.52 226.48 1365.21 226.48C1358.62 226.48 1353.24 228.415 1349.09 232.285C1345.07 236.012 1342.56 241.53 1341.56 248.84ZM1495.85 321.08C1484.95 321.08 1475.28 318.572 1466.82 313.555C1458.51 308.538 1451.99 301.515 1447.26 292.485C1442.67 283.312 1440.38 272.777 1440.38 260.88C1440.38 248.983 1442.67 238.52 1447.26 229.49C1451.99 220.46 1458.51 213.437 1466.82 208.42C1475.28 203.26 1484.95 200.68 1495.85 200.68C1504.88 200.68 1513.12 202.472 1520.57 206.055C1528.03 209.638 1534.12 214.727 1538.85 221.32C1543.72 227.913 1546.8 235.797 1548.09 244.97L1519.07 246.475C1517.63 240.025 1514.91 235.08 1510.9 231.64C1506.88 228.2 1501.94 226.48 1496.06 226.48C1488.18 226.48 1481.94 229.562 1477.36 235.725C1472.91 241.745 1470.69 250.13 1470.69 260.88C1470.69 271.63 1472.91 280.087 1477.36 286.25C1481.94 292.27 1488.18 295.28 1496.06 295.28C1502.08 295.28 1507.1 293.488 1511.11 289.905C1515.27 286.322 1517.99 281.09 1519.28 274.21L1548.31 275.715C1547.16 284.745 1544.15 292.7 1539.28 299.58C1534.4 306.317 1528.24 311.62 1520.79 315.49C1513.33 319.217 1505.02 321.08 1495.85 321.08ZM1575.1 318.5V165.85H1604.34V227.985L1601.97 225.835C1603.69 219.958 1606.2 215.228 1609.5 211.645C1612.79 207.918 1616.81 205.195 1621.54 203.475C1626.27 201.612 1631.43 200.68 1637.02 200.68C1645.04 200.68 1651.64 202.472 1656.8 206.055C1661.96 209.638 1665.83 214.727 1668.41 221.32C1670.99 227.77 1672.28 235.367 1672.28 244.11V318.5H1643.04V250.13C1643.04 241.243 1641.53 234.937 1638.52 231.21C1635.51 227.34 1631.28 225.405 1625.84 225.405C1619.67 225.405 1614.51 227.627 1610.36 232.07C1606.34 236.513 1604.34 243.178 1604.34 252.065V318.5H1575.1ZM1702.72 318.5V203.26H1729.38L1730.24 234.65L1727.23 233.36C1728.67 225.907 1731.1 219.743 1734.54 214.87C1738.13 209.997 1742.5 206.413 1747.66 204.12C1752.82 201.827 1758.55 200.68 1764.86 200.68C1773.17 200.68 1779.91 202.543 1785.07 206.27C1790.37 209.997 1794.31 215.085 1796.89 221.535C1799.47 227.985 1800.76 235.438 1800.76 243.895V318.5H1771.52V250.56C1771.52 241.817 1770.02 235.438 1767.01 231.425C1764.14 227.412 1759.77 225.405 1753.89 225.405C1749.88 225.405 1746.23 226.408 1742.93 228.415C1739.63 230.422 1736.98 233.36 1734.97 237.23C1732.97 241.1 1731.96 245.973 1731.96 251.85V318.5H1702.72ZM1880.66 321.08C1869.77 321.08 1860.24 318.643 1852.07 313.77C1843.9 308.753 1837.52 301.73 1832.93 292.7C1828.34 283.67 1826.05 273.063 1826.05 260.88C1826.05 248.553 1828.34 237.947 1832.93 229.06C1837.52 220.03 1843.9 213.078 1852.07 208.205C1860.24 203.188 1869.77 200.68 1880.66 200.68C1891.55 200.68 1901.09 203.188 1909.26 208.205C1917.43 213.078 1923.8 220.03 1928.39 229.06C1932.98 237.947 1935.27 248.553 1935.27 260.88C1935.27 273.063 1932.98 283.67 1928.39 292.7C1923.8 301.73 1917.43 308.753 1909.26 313.77C1901.09 318.643 1891.55 321.08 1880.66 321.08ZM1880.66 295.28C1888.4 295.28 1894.35 292.342 1898.51 286.465C1902.81 280.445 1904.96 271.917 1904.96 260.88C1904.96 249.7 1902.81 241.172 1898.51 235.295C1894.35 229.418 1888.4 226.48 1880.66 226.48C1872.92 226.48 1866.9 229.418 1862.6 235.295C1858.44 241.172 1856.37 249.7 1856.37 260.88C1856.37 271.917 1858.44 280.445 1862.6 286.465C1866.9 292.342 1872.92 295.28 1880.66 295.28ZM1997.97 318.5V202.4C1997.97 197.957 1996.82 194.66 1994.53 192.51C1992.23 190.217 1988.94 189.07 1984.64 189.07H1959.7V165.85H1989.8C2002.27 165.85 2011.58 169.003 2017.75 175.31C2024.05 181.473 2027.21 190.718 2027.21 203.045V318.5H1997.97ZM1955.4 318.5V295.28H2063.76V318.5H1955.4ZM2138.49 321.08C2127.6 321.08 2118.07 318.643 2109.9 313.77C2101.73 308.753 2095.35 301.73 2090.76 292.7C2086.18 283.67 2083.88 273.063 2083.88 260.88C2083.88 248.553 2086.18 237.947 2090.76 229.06C2095.35 220.03 2101.73 213.078 2109.9 208.205C2118.07 203.188 2127.6 200.68 2138.49 200.68C2149.39 200.68 2158.92 203.188 2167.09 208.205C2175.26 213.078 2181.64 220.03 2186.22 229.06C2190.81 237.947 2193.1 248.553 2193.1 260.88C2193.1 273.063 2190.81 283.67 2186.22 292.7C2181.64 301.73 2175.26 308.753 2167.09 313.77C2158.92 318.643 2149.39 321.08 2138.49 321.08ZM2138.49 295.28C2146.23 295.28 2152.18 292.342 2156.34 286.465C2160.64 280.445 2162.79 271.917 2162.79 260.88C2162.79 249.7 2160.64 241.172 2156.34 235.295C2152.18 229.418 2146.23 226.48 2138.49 226.48C2130.75 226.48 2124.73 229.418 2120.43 235.295C2116.28 241.172 2114.2 249.7 2114.2 260.88C2114.2 271.917 2116.28 280.445 2120.43 286.465C2124.73 292.342 2130.75 295.28 2138.49 295.28ZM2266.55 353.33C2257.23 353.33 2249.06 351.968 2242.04 349.245C2235.16 346.522 2229.5 342.652 2225.05 337.635C2220.75 332.762 2217.74 326.957 2216.02 320.22L2246.55 318.5C2247.84 321.94 2250.06 324.663 2253.22 326.67C2256.37 328.677 2260.81 329.68 2266.55 329.68C2274.72 329.68 2280.88 327.817 2285.04 324.09C2289.34 320.507 2291.49 315.203 2291.49 308.18V294.85C2288.91 300.153 2284.97 304.453 2279.66 307.75C2274.36 310.903 2267.69 312.48 2259.67 312.48C2250.49 312.48 2242.25 310.187 2234.94 305.6C2227.78 300.87 2222.11 294.42 2217.96 286.25C2213.94 277.937 2211.94 268.405 2211.94 257.655C2211.94 246.045 2213.94 236.012 2217.96 227.555C2221.97 218.955 2227.49 212.362 2234.51 207.775C2241.68 203.045 2249.85 200.68 2259.02 200.68C2266.76 200.68 2273.43 202.472 2279.02 206.055C2284.75 209.495 2289.05 214.44 2291.92 220.89L2292.35 203.26H2320.73V304.525C2320.73 315.275 2318.51 324.233 2314.06 331.4C2309.62 338.71 2303.31 344.157 2295.14 347.74C2287.12 351.467 2277.58 353.33 2266.55 353.33ZM2266.98 289.045C2274.29 289.045 2280.16 286.393 2284.61 281.09C2289.19 275.643 2291.49 267.617 2291.49 257.01C2291.63 249.843 2290.63 243.895 2288.48 239.165C2286.47 234.292 2283.6 230.637 2279.88 228.2C2276.15 225.62 2271.85 224.33 2266.98 224.33C2259.09 224.33 2253 227.125 2248.7 232.715C2244.4 238.305 2242.25 246.403 2242.25 257.01C2242.25 267.617 2244.4 275.643 2248.7 281.09C2253.15 286.393 2259.24 289.045 2266.98 289.045ZM2356.55 350.75V327.53H2372.24C2375.97 327.53 2378.84 326.957 2380.84 325.81C2382.99 324.807 2384.57 322.8 2385.57 319.79L2388.58 311.19H2379.55L2339.13 203.26H2369.45L2397.61 283.24L2423.63 203.26H2453.94L2409.65 328.605C2406.93 336.632 2402.7 342.293 2396.97 345.59C2391.38 349.03 2384.14 350.75 2375.25 350.75H2356.55Z" fill="white"/>
</svg>
