<svg width="2012" height="485" viewBox="0 0 2012 485" fill="none" xmlns="http://www.w3.org/2000/svg">
<path d="M300 40C300 17.9086 317.909 0 340 0H367C389.091 0 407 17.9086 407 40V345C407 367.091 389.091 385 367 385H300V40Z" fill="black"/>
<path d="M100 385H300V445C300 467.091 282.091 485 260 485H140C117.909 485 100 467.091 100 445V385Z" fill="black"/>
<path d="M0 325C0 302.909 17.9086 285 40 285H60C82.0914 285 100 302.909 100 325V385H40C17.9086 385 0 367.091 0 345V325Z" fill="black"/>
<path d="M572.54 303.64C564.29 303.64 557.195 301.88 551.255 298.36C545.425 294.84 540.86 289.78 537.56 283.18C534.37 276.58 532.72 268.66 532.61 259.42L556.205 258.1C556.425 266.79 557.855 273.115 560.495 277.075C563.135 280.925 567.205 282.85 572.705 282.85C578.205 282.85 582.22 281.035 584.75 277.405C587.39 273.775 588.71 268.11 588.71 260.41V183.85H612.14V260.41C612.14 274.05 608.675 284.665 601.745 292.255C594.815 299.845 585.08 303.64 572.54 303.64ZM662.896 302.98C657.506 302.98 652.556 301.99 648.046 300.01C643.536 298.03 639.961 295.17 637.321 291.43C634.791 287.69 633.526 283.235 633.526 278.065C633.526 270.585 635.891 264.755 640.621 260.575C645.461 256.395 652.061 253.425 660.421 251.665L686.986 245.89C686.986 240.28 685.831 235.99 683.521 233.02C681.321 230.05 677.691 228.565 672.631 228.565C668.231 228.565 664.821 229.665 662.401 231.865C659.981 234.065 658.386 236.98 657.616 240.61L634.516 239.29C636.166 230.6 640.291 223.67 646.891 218.5C653.601 213.22 662.071 210.58 672.301 210.58C685.061 210.58 694.411 213.825 700.351 220.315C706.401 226.695 709.426 235.66 709.426 247.21V278.395C709.426 280.595 709.811 282.135 710.581 283.015C711.351 283.785 712.506 284.17 714.046 284.17H717.676V301C717.016 301.11 715.916 301.22 714.376 301.33C712.836 301.55 711.241 301.66 709.591 301.66C705.191 301.66 701.451 300.89 698.371 299.35C695.291 297.81 692.926 295.555 691.276 292.585C689.736 289.615 688.856 286.04 688.636 281.86H691.111C690.561 285.82 689.076 289.45 686.656 292.75C684.236 295.94 680.991 298.47 676.921 300.34C672.851 302.1 668.176 302.98 662.896 302.98ZM667.516 286.15C671.696 286.15 675.216 285.435 678.076 284.005C680.936 282.465 683.136 280.265 684.676 277.405C686.216 274.435 686.986 270.97 686.986 267.01V261.73L667.351 266.02C663.391 266.9 660.586 268.165 658.936 269.815C657.286 271.465 656.461 273.83 656.461 276.91C656.461 279.77 657.396 282.025 659.266 283.675C661.136 285.325 663.886 286.15 667.516 286.15ZM786.416 301C776.516 301 769.201 298.745 764.471 294.235C759.851 289.725 757.541 282.74 757.541 273.28V191.77H779.981V271.135C779.981 275.205 780.916 278.23 782.786 280.21C784.766 282.19 787.791 283.18 791.861 283.18H812.651V301H786.416ZM732.131 230.38V212.56H812.651V230.38H732.131ZM867.862 301V212.56H890.302V301H867.862ZM835.027 301V283.18H918.187V301H835.027ZM836.677 230.38V212.56H886.177V230.38H836.677ZM867.202 201.67V182.2H889.972V201.67H867.202ZM1059.46 301V204.97H1028.28V183.85H1114.08V204.97H1082.89V301H1059.46ZM1170.77 302.98C1162.52 302.98 1155.21 301.11 1148.83 297.37C1142.56 293.52 1137.61 288.13 1133.98 281.2C1130.46 274.27 1128.7 266.13 1128.7 256.78C1128.7 247.65 1130.46 239.62 1133.98 232.69C1137.5 225.76 1142.39 220.37 1148.66 216.52C1154.93 212.56 1162.19 210.58 1170.44 210.58C1178.58 210.58 1185.73 212.505 1191.89 216.355C1198.16 220.205 1203.06 225.65 1206.58 232.69C1210.1 239.62 1211.86 247.815 1211.86 257.275V262.885H1151.8C1152.35 269.485 1154.33 274.545 1157.74 278.065C1161.26 281.475 1165.77 283.18 1171.27 283.18C1175.34 283.18 1178.8 282.245 1181.66 280.375C1184.52 278.395 1186.5 275.755 1187.6 272.455L1210.04 273.94C1207.07 283.18 1202.23 290.33 1195.52 295.39C1188.92 300.45 1180.67 302.98 1170.77 302.98ZM1152.13 247.54H1187.93C1187.38 241.82 1185.51 237.53 1182.32 234.67C1179.13 231.81 1175.12 230.38 1170.28 230.38C1165.22 230.38 1161.09 231.865 1157.9 234.835C1154.82 237.695 1152.9 241.93 1152.13 247.54ZM1270.53 302.98C1262.17 302.98 1254.75 301.055 1248.26 297.205C1241.88 293.355 1236.87 287.965 1233.24 281.035C1229.72 273.995 1227.96 265.91 1227.96 256.78C1227.96 247.65 1229.72 239.62 1233.24 232.69C1236.87 225.76 1241.88 220.37 1248.26 216.52C1254.75 212.56 1262.17 210.58 1270.53 210.58C1277.46 210.58 1283.79 211.955 1289.51 214.705C1295.23 217.455 1299.9 221.36 1303.53 226.42C1307.27 231.48 1309.64 237.53 1310.63 244.57L1288.35 245.725C1287.25 240.775 1285.16 236.98 1282.08 234.34C1279 231.7 1275.21 230.38 1270.7 230.38C1264.65 230.38 1259.86 232.745 1256.34 237.475C1252.93 242.095 1251.23 248.53 1251.23 256.78C1251.23 265.03 1252.93 271.52 1256.34 276.25C1259.86 280.87 1264.65 283.18 1270.7 283.18C1275.32 283.18 1279.17 281.805 1282.25 279.055C1285.44 276.305 1287.53 272.29 1288.52 267.01L1310.79 268.165C1309.91 275.095 1307.6 281.2 1303.86 286.48C1300.12 291.65 1295.39 295.72 1289.67 298.69C1283.95 301.55 1277.57 302.98 1270.53 302.98ZM1331.35 301V183.85H1353.79V231.535L1351.98 229.885C1353.3 225.375 1355.22 221.745 1357.75 218.995C1360.28 216.135 1363.36 214.045 1366.99 212.725C1370.62 211.295 1374.58 210.58 1378.87 210.58C1385.03 210.58 1390.09 211.955 1394.05 214.705C1398.01 217.455 1400.98 221.36 1402.96 226.42C1404.94 231.37 1405.93 237.2 1405.93 243.91V301H1383.49V248.53C1383.49 241.71 1382.34 236.87 1380.03 234.01C1377.72 231.04 1374.47 229.555 1370.29 229.555C1365.56 229.555 1361.6 231.26 1358.41 234.67C1355.33 238.08 1353.79 243.195 1353.79 250.015V301H1331.35ZM1429.3 301V212.56H1449.76L1450.42 236.65L1448.11 235.66C1449.21 229.94 1451.08 225.21 1453.72 221.47C1456.47 217.73 1459.82 214.98 1463.78 213.22C1467.74 211.46 1472.14 210.58 1476.98 210.58C1483.36 210.58 1488.53 212.01 1492.49 214.87C1496.56 217.73 1499.59 221.635 1501.57 226.585C1503.55 231.535 1504.54 237.255 1504.54 243.745V301H1482.1V248.86C1482.1 242.15 1480.94 237.255 1478.63 234.175C1476.43 231.095 1473.08 229.555 1468.57 229.555C1465.49 229.555 1462.68 230.325 1460.15 231.865C1457.62 233.405 1455.59 235.66 1454.05 238.63C1452.51 241.6 1451.74 245.34 1451.74 249.85V301H1429.3ZM1565.86 302.98C1557.5 302.98 1550.18 301.11 1543.91 297.37C1537.64 293.52 1532.75 288.13 1529.23 281.2C1525.71 274.27 1523.95 266.13 1523.95 256.78C1523.95 247.32 1525.71 239.18 1529.23 232.36C1532.75 225.43 1537.64 220.095 1543.91 216.355C1550.18 212.505 1557.5 210.58 1565.86 210.58C1574.22 210.58 1581.53 212.505 1587.8 216.355C1594.07 220.095 1598.97 225.43 1602.49 232.36C1606.01 239.18 1607.77 247.32 1607.77 256.78C1607.77 266.13 1606.01 274.27 1602.49 281.2C1598.97 288.13 1594.07 293.52 1587.8 297.37C1581.53 301.11 1574.22 302.98 1565.86 302.98ZM1565.86 283.18C1571.8 283.18 1576.36 280.925 1579.55 276.415C1582.85 271.795 1584.5 265.25 1584.5 256.78C1584.5 248.2 1582.85 241.655 1579.55 237.145C1576.36 232.635 1571.8 230.38 1565.86 230.38C1559.92 230.38 1555.3 232.635 1552 237.145C1548.81 241.655 1547.21 248.2 1547.21 256.78C1547.21 265.25 1548.81 271.795 1552 276.415C1555.3 280.925 1559.92 283.18 1565.86 283.18ZM1655.88 301V211.9C1655.88 208.49 1655 205.96 1653.24 204.31C1651.48 202.55 1648.95 201.67 1645.65 201.67H1626.51V183.85H1649.61C1659.18 183.85 1666.33 186.27 1671.06 191.11C1675.9 195.84 1678.32 202.935 1678.32 212.395V301H1655.88ZM1623.21 301V283.18H1706.37V301H1623.21ZM1763.73 302.98C1755.37 302.98 1748.05 301.11 1741.78 297.37C1735.51 293.52 1730.62 288.13 1727.1 281.2C1723.58 274.27 1721.82 266.13 1721.82 256.78C1721.82 247.32 1723.58 239.18 1727.1 232.36C1730.62 225.43 1735.51 220.095 1741.78 216.355C1748.05 212.505 1755.37 210.58 1763.73 210.58C1772.09 210.58 1779.4 212.505 1785.67 216.355C1791.94 220.095 1796.84 225.43 1800.36 232.36C1803.88 239.18 1805.64 247.32 1805.64 256.78C1805.64 266.13 1803.88 274.27 1800.36 281.2C1796.84 288.13 1791.94 293.52 1785.67 297.37C1779.4 301.11 1772.09 302.98 1763.73 302.98ZM1763.73 283.18C1769.67 283.18 1774.23 280.925 1777.42 276.415C1780.72 271.795 1782.37 265.25 1782.37 256.78C1782.37 248.2 1780.72 241.655 1777.42 237.145C1774.23 232.635 1769.67 230.38 1763.73 230.38C1757.79 230.38 1753.17 232.635 1749.87 237.145C1746.68 241.655 1745.08 248.2 1745.08 256.78C1745.08 265.25 1746.68 271.795 1749.87 276.415C1753.17 280.925 1757.79 283.18 1763.73 283.18ZM1862 327.73C1854.85 327.73 1848.58 326.685 1843.19 324.595C1837.91 322.505 1833.57 319.535 1830.16 315.685C1826.86 311.945 1824.55 307.49 1823.23 302.32L1846.66 301C1847.65 303.64 1849.35 305.73 1851.77 307.27C1854.19 308.81 1857.6 309.58 1862 309.58C1868.27 309.58 1873 308.15 1876.19 305.29C1879.49 302.54 1881.14 298.47 1881.14 293.08V282.85C1879.16 286.92 1876.14 290.22 1872.07 292.75C1868 295.17 1862.88 296.38 1856.72 296.38C1849.68 296.38 1843.36 294.62 1837.75 291.1C1832.25 287.47 1827.9 282.52 1824.71 276.25C1821.63 269.87 1820.09 262.555 1820.09 254.305C1820.09 245.395 1821.63 237.695 1824.71 231.205C1827.79 224.605 1832.03 219.545 1837.42 216.025C1842.92 212.395 1849.19 210.58 1856.23 210.58C1862.17 210.58 1867.28 211.955 1871.57 214.705C1875.97 217.345 1879.27 221.14 1881.47 226.09L1881.8 212.56H1903.58V290.275C1903.58 298.525 1901.88 305.4 1898.47 310.9C1895.06 316.51 1890.22 320.69 1883.95 323.44C1877.79 326.3 1870.47 327.73 1862 327.73ZM1862.33 278.395C1867.94 278.395 1872.45 276.36 1875.86 272.29C1879.38 268.11 1881.14 261.95 1881.14 253.81C1881.25 248.31 1880.48 243.745 1878.83 240.115C1877.29 236.375 1875.09 233.57 1872.23 231.7C1869.37 229.72 1866.07 228.73 1862.33 228.73C1856.28 228.73 1851.61 230.875 1848.31 235.165C1845.01 239.455 1843.36 245.67 1843.36 253.81C1843.36 261.95 1845.01 268.11 1848.31 272.29C1851.72 276.36 1856.39 278.395 1862.33 278.395ZM1931.07 325.75V307.93H1943.12C1945.98 307.93 1948.18 307.49 1949.72 306.61C1951.37 305.84 1952.58 304.3 1953.35 301.99L1955.66 295.39H1948.73L1917.71 212.56H1940.97L1962.59 273.94L1982.55 212.56H2005.82L1971.83 308.755C1969.74 314.915 1966.49 319.26 1962.09 321.79C1957.8 324.43 1952.25 325.75 1945.43 325.75H1931.07Z" fill="black"/>
</svg>
