<svg width="647" height="725" viewBox="0 0 647 725" fill="none" xmlns="http://www.w3.org/2000/svg">
<rect width="647" height="725" rx="40" fill="black"/>
<path d="M420 160C420 137.909 437.909 120 460 120H487C509.091 120 527 137.909 527 160V465C527 487.091 509.091 505 487 505H420V160Z" fill="white"/>
<path d="M220 505H420V565C420 587.091 402.091 605 380 605H260C237.909 605 220 587.091 220 565V505Z" fill="white"/>
<path d="M120 445C120 422.909 137.909 405 160 405H180C202.091 405 220 422.909 220 445V505H160C137.909 505 120 487.091 120 465V445Z" fill="white"/>
</svg>
